<svg width="100" height="68" viewBox="0 0 100 68" fill="none" xmlns="http://www.w3.org/2000/svg">
  <path fill="#fff" d="M0 0h100v68H0z"/>
  <path d="M24.918 20.84h1.92v5.88h7.34v-5.88h1.92V35h-1.92v-6.48h-7.34V35h-1.92V20.84zm17.784 1.8h-4.56v-1.8h11.04v1.8h-4.56V35h-1.92V22.64zm8.384-1.8h2.86l4.5 10.72h.08l4.46-10.72h2.86V35h-1.92V23.36h-.04L59.106 35h-1.28l-4.78-11.64h-.04V35h-1.92V20.84zm18.265 0h1.92V33.2h6.5V35h-8.42V20.84z" fill="#00A0D2"/>
  <path d="M37.094 45.898l6.836-3.632.57 1.242-4.945 2.773-.485.149.508.164 4.922 2.758-.57 1.242-6.836-3.64v-1.056zm13.343 1.32l2.508-6.445a.946.946 0 00-.375-.273 3.17 3.17 0 00-.453-.164 4.312 4.312 0 00-.539-.094l-2.344 6.485-2.187 5.468c.135.12.281.22.437.297a3.86 3.86 0 00.969.32l1.984-5.593zm12.461-1.554l-6.836-3.633-.57 1.242 4.946 2.774.484.148-.508.164-4.922 2.758.57 1.242 6.836-3.64v-1.055z" fill="#00A0D2" fill-opacity=".2"/>
</svg>
