<svg width="100" height="68" viewBox="0 0 100 68" fill="none" xmlns="http://www.w3.org/2000/svg">
  <mask id="a" maskUnits="userSpaceOnUse" x="0" y="0" width="100" height="68">
    <path d="M100 0H0v68h100V0z" fill="#fff"/>
  </mask>
  <g mask="url(#a)">
    <path d="M100 0H0v68h100V0z" fill="#fff"/>
    <path d="M92 50H71a3 3 0 00-3 3v9a3 3 0 003 3h21a3 3 0 003-3v-9a3 3 0 00-3-3z" fill="#1C2024"/>
    <path d="M77.29 61h-.943l-3.58-5.478V61h-.942v-7.11h.943l3.588 5.504V53.89h.933V61zm5.683-3.286h-3.081v2.52h3.579V61h-4.517v-7.11h4.468v.772h-3.53v2.285h3.08v.767zm3.198 1.045l.137.937.2-.844 1.406-4.961h.791l1.372 4.96.195.86.152-.957 1.103-4.863h.943L90.746 61h-.854l-1.465-5.18-.113-.543-.112.542L86.684 61h-.855l-1.719-7.11h.938l1.123 4.869z" fill="#fff"/>
    <path fill-rule="evenodd" clip-rule="evenodd" d="M28.47 9.293c-1.097.559-1.607 1.6-1.316 2.682.445 1.65 2.206 2.332 3.616 1.398 1.88-1.245 1.195-4.003-1.079-4.35-.409-.063-.691 0-1.221.27zm6.603 4.23c-.237.068-.657.373-.931.677-.458.506-.5.622-.5 1.386 0 1.063.188 1.41 1.262 2.34.48.417 1.315 1.201 1.856 1.744 1.172 1.176 1.617 1.43 2.497 1.421 1.33-.011 2.249-.897 2.249-2.168 0-.407-.07-.876-.157-1.042-.498-.959-3.727-4.014-4.573-4.329-.521-.194-1.103-.204-1.703-.03zm7.743 8.811c-.852.195-1.439.713-1.705 1.508-.246.735-.19 1.107.346 2.29.813 1.796 1.568 4.044 1.85 5.509.146.753.25 1.383.232 1.4-.018.016-.84.102-1.826.19-5.905.533-9.773 1.737-13.593 4.232-2.954 1.928-4.866 4.536-5.8 7.913-.27.973-.325 1.491-.32 3.035.006 1.703.043 1.973.431 3.143.546 1.644 1.328 2.95 2.414 4.035 2.483 2.48 4.295 3.16 8.47 3.179 3.876.018 7.763-2.112 10.345-5.666 2.473-3.405 4.37-9.067 4.713-14.071l.1-1.449 2-.107c1.1-.06 2.233-.089 2.517-.066.612.05.577.24.537-2.893l-.02-1.55-2.58-.037-2.583-.037-.113-.552c-.73-3.57-1.383-5.68-2.496-8.07-.62-1.333-1.117-1.8-2.09-1.961a2.566 2.566 0 00-.829.025zm13.588 12.838c0 1.648.044 2.226.173 2.268.095.031 2.02.078 4.276.103l4.104.047v-4.45l-1.677-.09c-.922-.05-2.846-.09-4.276-.09h-2.6v2.211zM67.84 33.19c-.037.284.047 4.398.09 4.443.028.028 1.59.102 3.47.164 1.882.062 4.182.15 5.112.197l1.69.084v-2.283c0-2.077-.022-2.283-.242-2.294a11.263 11.263 0 01-.586-.05c-.19-.022-2.176-.081-4.415-.132-2.238-.051-4.302-.127-4.586-.169-.285-.041-.525-.023-.533.04zm-24.126 5.121c0 1.26-.653 4.664-1.24 6.463-1.478 4.531-3.434 7.275-6.14 8.616-1.32.653-2.486.87-3.975.74-1.851-.16-2.98-.717-4.232-2.089-.96-1.049-1.297-1.987-1.305-3.63-.005-1.026.066-1.531.327-2.328 1.265-3.862 5.714-6.88 11.599-7.869 1.918-.322 3.495-.518 4.38-.545l.586-.018v.66z" fill="#80CFE8"/>
    <path fill-rule="evenodd" clip-rule="evenodd" d="M41.713 33.232c.986-.09 1.808-.175 1.826-.192.018-.016 4.805-.148 4.805-.148l2.582.037 2.582.038.02 1.549.006.512c.024 1.804.03 2.273-.16 2.376-.068.037-.16.027-.284.015l-.1-.01c-.284-.023-1.417.007-2.517.066l-2 .107-4.76.07-.586.017c-.886.027-2.462.223-4.38.545-5.885.989-10.334 4.007-11.6 7.87-.26.796-.331 1.301-.326 2.327.008 1.643.346 2.581 1.304 3.63 1.116 1.22 2.131 1.796 3.646 2.021a2.557 2.557 0 00-1.39 4.522c-2.273-.337-3.726-1.188-5.536-2.995-1.086-1.085-1.868-2.391-2.414-4.035-.388-1.17-.425-1.44-.43-3.143-.006-1.544.049-2.063.318-3.035.935-3.377 2.847-5.985 5.8-7.913 3.822-2.495 7.69-3.699 13.594-4.231zm14.691 1.94c0 1.648.044 2.226.173 2.268.095.031 2.02.078 4.276.103l4.104.047v-4.45l-1.677-.09c-.922-.05-2.846-.09-4.276-.09h-2.6v2.211zM67.84 33.19c-.037.284.047 4.398.09 4.443.028.028 1.59.102 3.47.164 1.882.062 4.182.15 5.112.197l1.69.084v-2.283c0-2.077-.022-2.283-.242-2.294a11.263 11.263 0 01-.586-.05c-.19-.022-2.176-.081-4.415-.132-2.238-.051-4.302-.127-4.586-.169-.285-.041-.525-.023-.533.04z" fill="#00A0D2"/>
  </g>
</svg>
