<svg viewBox="0 0 1000 300" xmlns="http://www.w3.org/2000/svg" preserveAspectRatio="none">
    <path class="ux-shape-fill" d="M0 300L-1 69.71C216 57 299.47 198.86 403 226C506 253 577 196 660 197C740 198 790.09 234.07 874 267C935.23 291 982 282.61 1000 277.61V300H0Z"/>
    <path class="ux-shape-fill" opacity="0.5" d="M1 265.094L0 50.5C217 37.79 300.47 186.36 404 213.5C507 240.5 578 196.5 661 197.5C741 198.5 787.59 239.57 871.5 272.5C932.73 296.5 980.5 284.5 998.5 279.5V298.5L1 265.094Z"/>
    <path class="ux-shape-fill" opacity="0.15" d="M0.999878 244.094L-0.00012207 27C217 14.29 300.47 173.86 404 201C507 228 578 196 661 197C741 198 787.59 243.07 871.5 276C932.73 300 980.5 284.5 998.5 279.5V299L0.999878 244.094Z"/>
</svg>

